{"title":"The.Con.Artists.2014.720p.BluRay.x264-WiKi","uid":11766075,"size":4740877211,"categoryP":"video","categoryS":"hd___movies","magnet":"?xt=urn:btih:cd55ed139e02fa2e09e3398c42494fea51674d85&amp;dn=The.Con.Artists.2014.720p.BluRay.x264-WiKi&amp;tr=udp%3A%2F%2Ftracker.openbittorrent.com%3A80&amp;tr=udp%3A%2F%2Fopen.demonii.com%3A1337&amp;tr=udp%3A%2F%2Ftracker.coppersurfer.tk%3A6969&amp;tr=udp%3A%2F%2Fexodus.desync.com%3A6969","seeders":16,"leechers":9,"uploader":"vickey1992","files":4,"time":1426858665,"description":"The.Con.Artists.2014.720p.BluRay.x264-WiKi\n\n\n\nNAME.................: The Con Artists\nGENRE................: Action\nRATiNG...............: 6.7/10 from 84 users\niMDB.................: http://www.imdb.com/title/tt4319112\nRELEASE DATE.........: 2015-03-20\nENCODE BY............: Jubowo @ WiKi\nRUNTiME..............: 1h:57m:02s\nFiLE SiZE............: 4.37 GiB\nViDEO CODEC..........: x264 @ 4706 Kbps\nAUDiO CODEC..........: Korean DD 5.1 @ 640 Kbps\nFRAMERATE............: 24 fps\nRESOLUTiON...........: 1280x536\nSOURCE...............: HK 1080p Blu-ray AVC DTS-HD MA 5.1-TTG\nSUBTiTLES............: CHS_CHT\n\nScreens:\n\nMediaInfo\n\n\nVideo\nID : 1\nFormat : AVC\nFormat/Info : Advanced Video Codec\nFormat profile : &lt;a class=&quot;__cf_email__&quot; href=&quot;/cdn-cgi/l/email-protection&quot; data-cfemail=&quot;df97b6b8b79f93ebf1ee&quot;&gt;[email&amp;#160;protected]&lt;/a&gt;&lt;script cf-hash='f9e31' type=&quot;text/javascript&quot;&gt;\n/* &lt;![CDATA[ */!function(){try{var t=&quot;currentScript&quot;in document?document.currentScript:function(){for(var t=document.getElementsByTagName(&quot;script&quot;),e=t.length;e--;)if(t[e].getAttribute(&quot;cf-hash&quot;))return t[e]}();if(t&amp;&amp;t.previousSibling){var e,r,n,i,c=t.previousSibling,a=c.getAttribute(&quot;data-cfemail&quot;);if(a){for(e=&quot;&quot;,r=parseInt(a.substr(0,2),16),n=2;a.length-n;n+=2)i=parseInt(a.substr(n,2),16)^r,e+=String.fromCharCode(i);e=document.createTextNode(e),c.parentNode.replaceChild(e,c)}}}catch(u){}}();/* ]]&gt; */&lt;/script&gt;\nFormat settings, CABAC : Yes\nFormat settings, ReFrames : 12 frames\nCodec ID : V_MPEG4/ISO/AVC\nDuration : 1h 57mn\nBit rate : 4 706 Kbps\nWidth : 1 280 pixels\nHeight : 536 pixels\nDisplay aspect ratio : 2.40:1\nFrame rate mode : Constant\nFrame rate : 24.000 fps\nColor space : YUV\nChroma subsampling : 4:2:0\nBit depth : 8 bits\nScan type : Progressive\nBits/(Pixel*Frame) : 0.286\nStream size : 3.76 GiB (86%)\nWriting library : x264 core 129 r2245+704+36 8e61944 tMod+MixAQ [8-bit@4:2:0 X86_64]\nEncoding settings : cabac=1 / ref=12 / deblock=1:-3:-3 / analyse=0x3:0x133 / me=umh / subme=11 / psy=1 / fade_compensate=0.00 / psy_rd=1.05:0.10 / mixed_ref=1 / me_range=32 / chroma_me=1 / trellis=2 / 8x8dct=1 / cqm=0 / deadzone=21,11 / fast_pskip=0 / chroma_qp_offset=-3 / threads=18 / lookahead_threads=3 / sliced_threads=0 / nr=0 / decimate=0 / interlaced=0 / bluray_compat=0 / constrained_intra=0 / fgo=0 / bframes=10 / b_pyramid=2 / b_adapt=2 / b_bias=0 / direct=3 / weightb=1 / open_gop=0 / weightp=2 / keyint=250 / keyint_min=24 / scenecut=40 / intra_refresh=0 / rc_lookahead=80 / rc=2pass / mbtree=1 / bitrate=4706 / ratetol=1.0 / qcomp=0.70 / qpmin=0 / qpmax=69 / qpstep=4 / cplxblur=20.0 / qblur=0.5 / ip_ratio=1.40 / aq=3 / aq-strength=0.85 / aq-sensitivity=10.00 / aq-ifactor=1.00 / aq-pfactor=1.00 / aq-bfactor=1.00 / aq2=0\nLanguage : Korean\nDefault : Yes\nForced : No\nMatrix coefficients : BT.709\nColor range : Limited\n\nAudio\nID : 2\nFormat : AC-3\nFormat/Info : Audio Coding 3\nMode extension : CM (complete main)\nFormat settings, Endianness : Big\nCodec ID : A_AC3\nDuration : 1h 57mn\nBit rate mode : Constant\nBit rate : 640 Kbps\nChannel(s) : 6 channels\nChannel positions : Front: L C R, Side: L R, LFE\nSampling rate : 48.0 KHz\nBit depth : 16 bits\nCompression mode : Lossy\nStream size : 536 MiB (12%)\nLanguage : Korean\nDefault : Yes\nForced : No\n\nText #1\nID : 3\nFormat : UTF-8\nCodec ID : S_TEXT/UTF8\nCodec ID/Info : UTF-8 Plain Text\nTitle : Simplified\nLanguage : Chinese\nDefault : Yes\nForced : No\n\nText #2\nID : 4\nFormat : UTF-8\nCodec ID : S_TEXT/UTF8\nCodec ID/Info : UTF-8 Plain Text\nTitle : Traditional\nLanguage : Chinese\nDefault : No\nForced : No\n\nMenu\n00:00:00.000 : en:00:00:00.000\n00:08:38.875 : en:00:08:38.875\n00:20:00.666 : en:00:20:00.666\n00:29:31.958 : en:00:29:31.958\n00:37:59.833 : en:00:37:59.833\n00:48:40.291 : en:00:48:40.291\n00:58:17.958 : en:00:58:17.958\n01:07:40.375 : en:01:07:40.375\n01:19:04.125 : en:01:19:04.125\n01:26:31.583 : en:01:26:31.583\n01:37:02.750 : en:01:37:02.750\n01:47:13.541 : en:01:47:13.541","torrent":{"xt":"urn:btih:cd55ed139e02fa2e09e3398c42494fea51674d85","amp;dn":"The.Con.Artists.2014.720p.BluRay.x264-WiKi","amp;tr":["udp%3A%2F%2Ftracker.openbittorrent.com%3A80","udp%3A%2F%2Fopen.demonii.com%3A1337","udp%3A%2F%2Ftracker.coppersurfer.tk%3A6969","udp%3A%2F%2Fexodus.desync.com%3A6969"],"infoHash":"cd55ed139e02fa2e09e3398c42494fea51674d85","infoHashBuffer":{"type":"Buffer","data":[205,85,237,19,158,2,250,46,9,227,57,140,66,73,79,234,81,103,77,133]},"announce":[],"urlList":[]}}